<svg width="32" height="32" xmlns="http://www.w3.org/2000/svg" xml:space="preserve" version="1.1">

 <g>
  <title>Layer 1</title>
  <g stroke="null" id="svg_1">
   <path fill="#ffffff" stroke="null" id="svg_2" d="m6.60296,5.45848c-0.10293,0.11332 -0.23931,0.16998 -0.37312,0.16998c-0.13638,0 -0.27019,-0.05666 -0.37312,-0.16998c-0.10293,-0.11332 -0.15439,-0.26346 -0.15439,-0.41078c0,-0.15015 0.05146,-0.29746 0.15439,-0.41078c0.18785,-0.2068 0.24189,-0.39378 0.2213,-0.57225c-0.02059,-0.19547 -0.12094,-0.40511 -0.23159,-0.62891c-0.19042,-0.39378 -0.39628,-0.81305 -0.46061,-1.32298c-0.0669,-0.51559 0.01029,-1.10768 0.38856,-1.82724l0.00257,-0.01133c0.07205,-0.13315 0.18785,-0.2238 0.31394,-0.26346c0.12866,-0.03966 0.27276,-0.02266 0.39885,0.05666c0.12609,0.07932 0.21101,0.20964 0.24703,0.35128c0.03603,0.14165 0.02059,0.30029 -0.05146,0.4391c-0.23159,0.44477 -0.27534,0.81305 -0.23159,1.13601c0.04632,0.32579 0.18785,0.61758 0.32166,0.88954c0.19814,0.40511 0.38084,0.78189 0.404,1.19833c0.02573,0.42777 -0.1158,0.86971 -0.57641,1.37681l0,0zm-2.97725,6.64606l24.31977,0c0.09778,0 0.19299,0.02266 0.28048,0.06232c0.08492,0.03966 0.15954,0.09349 0.22645,0.16148c0.00515,0.00283 0.01029,0.0085 0.01544,0.01416c0.13381,0.14731 0.21615,0.34845 0.21615,0.57225l0,1.80458l2.40856,0c0.14668,0 0.27791,0.06516 0.37312,0.16998l0,0c0.09521,0.10482 0.15439,0.25213 0.15439,0.41078c0,0.16148 -0.05918,0.30596 -0.15439,0.41078l-0.00772,0.0085c-0.09521,0.09915 -0.22387,0.16148 -0.3654,0.16148l-2.40856,0l0,11.92665c0,0.51559 -0.09521,1.00852 -0.26504,1.45896c-0.17755,0.46743 -0.43488,0.88954 -0.75396,1.24082c-0.31908,0.35128 -0.7025,0.63741 -1.12708,0.83005c-0.40915,0.18697 -0.85689,0.29179 -1.32522,0.29179l-18.84905,0c-0.46833,0 -0.91608,-0.10482 -1.32522,-0.29179c-0.42459,-0.19547 -0.808,-0.47877 -1.12708,-0.83288c-0.31908,-0.35128 -0.57898,-0.77339 -0.75654,-1.24082c-0.16983,-0.45044 -0.26504,-0.94337 -0.26504,-1.45896l0,-11.91815l-2.35967,0c-0.14668,0 -0.27791,-0.06516 -0.37312,-0.16998c-0.09778,-0.10765 -0.15697,-0.25213 -0.15697,-0.41361c0,-0.16148 0.05918,-0.30596 0.15439,-0.41078l0,0c0.09521,-0.10482 0.22902,-0.16998 0.37312,-0.16998l2.36224,0l0,-1.80458c0,-0.10765 0.02059,-0.21247 0.05661,-0.30879c0.0386,-0.09915 0.09264,-0.18981 0.15954,-0.26346c0.13381,-0.14731 0.31908,-0.2408 0.5198,-0.2408l0,0zm23.99812,1.16717l-23.67389,0l0,14.53861c0,0.35978 0.06433,0.69973 0.1827,1.01419c0.12352,0.32579 0.30364,0.61758 0.52752,0.86404c0.22387,0.24647 0.48892,0.44477 0.78484,0.58075c0.28306,0.13031 0.59442,0.20114 0.92122,0.20114l18.84905,0c0.32423,0 0.63559,-0.07082 0.91865,-0.20114c0.29335,-0.13598 0.56097,-0.33429 0.78484,-0.57792c0.22387,-0.24647 0.404,-0.53826 0.52494,-0.86404c0.11837,-0.31162 0.1827,-0.65441 0.1827,-1.01136l0,-14.54428l-0.00257,0zm-22.46189,1.97455c0,-0.16148 0.05918,-0.30596 0.15439,-0.41078c0.09521,-0.10482 0.22902,-0.16998 0.37312,-0.16998c0.14668,0 0.27791,0.06516 0.37312,0.16998c0.09521,0.10482 0.15439,0.25213 0.15439,0.41078l0,7.67442c0,0.16148 -0.05918,0.30596 -0.15439,0.41078c-0.09521,0.10482 -0.22902,0.16998 -0.37312,0.16998c-0.14668,0 -0.27791,-0.06516 -0.37312,-0.16998l-0.00772,-0.0085c-0.09006,-0.10482 -0.14668,-0.24647 -0.14668,-0.40228l0,-7.67442l0,0zm5.20826,-8.04836c-0.91093,0.14448 -1.72922,0.32862 -2.45488,0.54676c-0.72823,0.22097 -1.36897,0.47877 -1.91964,0.77339c-0.38599,0.2068 -0.72823,0.43061 -1.02415,0.67141c-0.20843,0.16714 -0.39371,0.34562 -0.55839,0.52976l22.75524,0c-0.15182,-0.17564 -0.3268,-0.34278 -0.52237,-0.50143c-0.28563,-0.22947 -0.61758,-0.44194 -0.99327,-0.63458c-0.53524,-0.27763 -1.15796,-0.51559 -1.85531,-0.72523c-0.7025,-0.20964 -1.47962,-0.38245 -2.3185,-0.52693c-0.38084,-0.06516 -0.76683,-0.12465 -1.15539,-0.17847l-0.00515,0c-0.38341,-0.05383 -0.7694,-0.09915 -1.16054,-0.14165c-0.38341,-0.03966 -0.77197,-0.07649 -1.16825,-0.10482c-0.39113,-0.02833 -0.77969,-0.05099 -1.16568,-0.06799c-0.14668,-0.00567 -0.27534,-0.07649 -0.36797,-0.18414c-0.09264,-0.10765 -0.14668,-0.25496 -0.14153,-0.41644l0,-0.00283c0.00257,-0.09349 0.02573,-0.18131 0.06433,-0.2578c0.0386,-0.07932 0.09521,-0.14448 0.16211,-0.19831c0.08234,-0.06799 0.15954,-0.14448 0.22645,-0.2323c0.0669,-0.08499 0.12352,-0.18131 0.16983,-0.28046c0.04632,-0.09915 0.08234,-0.20397 0.1055,-0.32012c0.02316,-0.11048 0.03603,-0.2238 0.03603,-0.34278c0,-0.19831 -0.03603,-0.38528 -0.10036,-0.55525c-0.0669,-0.17564 -0.16469,-0.33712 -0.28563,-0.47027c-0.12094,-0.13315 -0.26762,-0.24363 -0.42716,-0.31446c-0.15439,-0.07082 -0.32423,-0.11048 -0.50436,-0.11048c-0.18013,0 -0.34996,0.03966 -0.50436,0.11048c-0.16211,0.07366 -0.30622,0.18131 -0.42716,0.31729c-0.12094,0.13315 -0.2213,0.29463 -0.28563,0.47027l0,0c-0.06433,0.16998 -0.10036,0.35695 -0.10036,0.55525c0,0.11615 0.01287,0.22947 0.03345,0.33712c0.02316,0.11048 0.05918,0.21814 0.10293,0.31446c0.04632,0.09915 0.10293,0.19547 0.16726,0.28046c0.0669,0.08782 0.14153,0.16714 0.22387,0.2323c0.1158,0.09632 0.18785,0.23513 0.20586,0.38245c0.01801,0.14731 -0.01287,0.30312 -0.10036,0.43061c-0.05146,0.07366 -0.11322,0.13031 -0.1827,0.16998c-0.0669,0.03683 -0.14153,0.05949 -0.21615,0.06232l-0.01544,0l-0.01029,0c-0.35254,0.0085 -0.71279,0.02266 -1.07562,0.04249c-0.35768,0.01983 -0.72051,0.04533 -1.09363,0.07932c-0.36025,0.03116 -0.71794,0.06799 -1.0679,0.11332c-0.35254,0.04249 -0.69992,0.09065 -1.04474,0.14731l0,0zm-4.83513,0.27196c0.60214,-0.32012 1.29434,-0.60058 2.07918,-0.83855c0.77969,-0.23797 1.64945,-0.43344 2.6067,-0.58642c0.35768,-0.05666 0.71794,-0.10765 1.08076,-0.15298c0.36797,-0.04533 0.7308,-0.08499 1.0962,-0.11615c0.22387,-0.01983 0.45804,-0.03683 0.69735,-0.05383c0.16469,-0.01133 0.33452,-0.01983 0.50436,-0.02833c-0.06433,-0.15581 -0.1158,-0.32012 -0.15182,-0.48726c-0.04117,-0.19264 -0.06433,-0.39378 -0.06433,-0.60058c0,-0.35412 0.06433,-0.69124 0.18013,-1.00003c0.12094,-0.32012 0.2985,-0.60908 0.51722,-0.84988c0.21873,-0.2408 0.4812,-0.43627 0.77197,-0.56659c0.28048,-0.12748 0.5867,-0.19831 0.90836,-0.19831s0.62787,0.07082 0.90836,0.19831c0.29078,0.13315 0.55325,0.32862 0.77197,0.56659c0.21873,0.2408 0.39628,0.52976 0.51722,0.84988c0.1158,0.30879 0.18013,0.64591 0.18013,1.00003c0,0.20964 -0.02316,0.41361 -0.0669,0.61191c-0.0386,0.17847 -0.09521,0.35128 -0.16726,0.51559c0.19557,0.01416 0.38599,0.02833 0.57126,0.04533c0.24961,0.01983 0.5095,0.04533 0.77712,0.07366c0.39885,0.04249 0.79513,0.09065 1.19399,0.14731c0.39885,0.05383 0.79513,0.11615 1.18884,0.18414c0.89292,0.15298 1.71378,0.33995 2.45488,0.56092c0.74624,0.2238 1.41786,0.48443 2.00456,0.78756c0.61243,0.31446 1.1348,0.67707 1.55682,1.09068c0.42716,0.41644 0.75139,0.88388 0.97011,1.40797c0.01801,0.03966 0.03345,0.08216 0.04375,0.13031c0.01029,0.04533 0.01544,0.09065 0.01544,0.13881c0,0.16148 -0.05918,0.30596 -0.15439,0.41078l-0.00772,0.0085c-0.09521,0.09915 -0.22387,0.16148 -0.3654,0.16148l-24.78553,0c-0.01029,0 -0.01801,0 -0.02573,-0.00283c-0.03345,-0.00283 -0.06948,-0.0085 -0.10036,-0.017c-0.03603,-0.01133 -0.07205,-0.0255 -0.10808,-0.04533c-0.00772,-0.00283 -0.01544,-0.0085 -0.02316,-0.01416c-0.12094,-0.07649 -0.20586,-0.19831 -0.24446,-0.33712c-0.0386,-0.13881 -0.03088,-0.29179 0.03345,-0.42777c0.00257,-0.0085 0.00772,-0.017 0.01287,-0.0255c0.25218,-0.51276 0.59442,-0.98303 1.03187,-1.40797c0.43488,-0.41927 0.96497,-0.79889 1.59027,-1.13317l0,0zm15.46522,-2.83577c0.10293,0.11332 0.15439,0.26346 0.15439,0.41078c0,0.15015 -0.05146,0.29746 -0.15439,0.41078c-0.10293,0.11332 -0.23931,0.16998 -0.37312,0.16998c-0.13638,0 -0.27019,-0.05666 -0.37312,-0.16998c-0.46061,-0.5071 -0.60214,-0.94903 -0.57898,-1.37397c0.02316,-0.41644 0.20843,-0.79322 0.404,-1.19833c0.25732,-0.53259 0.55325,-1.13884 0.09006,-2.02555l-0.00515,-0.01133c-0.06948,-0.13598 -0.08234,-0.29179 -0.04632,-0.43061c0.03603,-0.14448 0.12094,-0.27196 0.24703,-0.35128c0.12609,-0.07932 0.27019,-0.09632 0.39885,-0.05666c0.13124,0.03966 0.24703,0.13315 0.31908,0.27196c0.37827,0.71957 0.45547,1.31165 0.38856,1.82441c-0.0669,0.50993 -0.27019,0.93204 -0.46061,1.32298l0,0c-0.20586,0.43061 -0.38341,0.79605 -0.01029,1.20683l0,0zm3.98854,0c0.10293,0.11332 0.15439,0.26346 0.15439,0.41078c0,0.15015 -0.05146,0.29746 -0.15439,0.41078c-0.10293,0.11332 -0.23931,0.16998 -0.37312,0.16998c-0.13638,0 -0.27019,-0.05666 -0.37312,-0.16998c-0.46061,-0.5071 -0.60214,-0.94903 -0.57898,-1.37397c0.02316,-0.41644 0.20843,-0.79322 0.404,-1.19833c0.13124,-0.27196 0.27534,-0.56375 0.32166,-0.88954c0.04632,-0.32295 0.00257,-0.69124 -0.23159,-1.13601c-0.07205,-0.13881 -0.08749,-0.29746 -0.05146,-0.4391c0.03603,-0.14448 0.12094,-0.27196 0.24703,-0.35128c0.12609,-0.07932 0.27019,-0.09632 0.39885,-0.05666c0.12866,0.03966 0.24703,0.13315 0.31908,0.27196c0.37827,0.71957 0.45547,1.31165 0.38856,1.82441c-0.0669,0.50993 -0.27019,0.93204 -0.46061,1.32298c-0.10808,0.2238 -0.21101,0.43344 -0.23159,0.62891c-0.02059,0.18414 0.03345,0.36828 0.2213,0.57509l0,0zm-14.39733,0.82438c-0.10293,0.11332 -0.23931,0.16998 -0.37312,0.16998c-0.13638,0 -0.27019,-0.05666 -0.37312,-0.16998c-0.10293,-0.11332 -0.15439,-0.26346 -0.15439,-0.41078c0,-0.15015 0.05146,-0.29746 0.15439,-0.41078c0.37569,-0.41361 0.19814,-0.77906 -0.01029,-1.204c-0.19042,-0.39378 -0.39628,-0.81305 -0.46061,-1.32581c-0.0669,-0.51559 0.01029,-1.10768 0.38856,-1.82724c0.07205,-0.13881 0.19042,-0.2323 0.32166,-0.26913c0.13124,-0.03683 0.27276,-0.02266 0.39885,0.05949c0.12609,0.07932 0.21101,0.20964 0.24446,0.35412c0.03345,0.14448 0.02059,0.30029 -0.05404,0.4391c-0.46318,0.88388 -0.16726,1.49296 0.09006,2.02271l0,0c0.19814,0.40511 0.38084,0.78189 0.404,1.19833c0.02573,0.42494 -0.11837,0.86688 -0.57641,1.37397l0,0z"/>
  </g>
 </g>
</svg>