<svg width="24" height="24" xmlns="http://www.w3.org/2000/svg" clip-rule="evenodd" fill-rule="evenodd" image-rendering="optimizeQuality" text-rendering="geometricPrecision" shape-rendering="geometricPrecision">

 <g>
  <title>Layer 1</title>
  <path fill="#ffffff" stroke="null" id="svg_1" d="m6.57972,9.82641c0.15738,-0.47682 0.39769,-0.63147 0.71433,-0.62171l-0.20874,-0.15106c-0.11309,-1.544 0.21863,-4.2225 -1.31886,-4.72963c2.90914,-3.92038 6.26213,-6.05218 8.77971,-2.56494c3.03306,0.17367 4.24968,5.42944 1.83058,7.64191l-0.01414,0.13051c0.09471,-0.03134 0.18942,-0.05138 0.28036,-0.05909c0.17858,-0.0149 0.34962,0.01696 0.49522,0.10122c0.15973,0.093 0.28177,0.24355 0.34444,0.45678c0.06031,0.20398 0.06267,0.46448 -0.01649,0.78459l-0.37837,1.17046c-0.06125,0.19011 -0.11733,0.3237 -0.23937,0.42955c-0.12581,0.10841 -0.278,0.14901 -0.5136,0.13513c-0.03911,-0.00206 -0.07822,-0.00668 -0.11638,-0.01439a2.62312,2.86038 0 0 1 -0.1734,0.83854c-0.13052,0.36583 -0.3124,0.66436 -0.49145,0.93976c-0.20261,0.31086 -0.417,0.59242 -0.64082,0.84522c0.17434,0.66744 0.3991,1.15916 0.66862,1.53321c1.36834,1.07284 5.05353,1.32512 6.33658,2.10508c1.85225,1.13038 1.80136,3.31511 2.20706,5.33747l-24.125,0c0.40193,-2.00438 0.36046,-4.22507 2.20706,-5.33747c1.62655,-0.98754 5.07803,-0.92435 6.45344,-2.20425c0.1979,-0.33809 0.36517,-0.74297 0.49334,-1.22595c-0.29355,-0.33295 -0.56873,-0.72858 -0.8194,-1.18793l-0.01696,-0.02929c-0.22617,-0.41413 -0.49946,-0.91407 -0.58522,-1.60823l-0.07351,0.00154c-0.15408,-0.00206 -0.3025,-0.04059 -0.44151,-0.1264c-0.22334,-0.13873 -0.37978,-0.37508 -0.48533,-0.64175l-0.00942,-0.02672c-0.11874,-0.31291 -0.17293,-0.6695 -0.18565,-0.93925c-0.00471,-0.10071 -0.00471,-0.30058 0.00047,-0.49172l0,-0.00257c0.00377,-0.16391 0.01178,-0.32267 0.02309,-0.41156c0.00377,-0.02723 0.0099,-0.05292 0.01932,-0.07707zm8.6195,7.38243l-0.02969,-0.03854c-0.29355,-0.38484 -0.54093,-0.87091 -0.73694,-1.50444c-0.31994,0.28516 -0.68229,0.52717 -1.07196,0.707l-0.02026,0.00976l-0.00047,0c-0.50512,0.24046 -1.02673,0.35658 -1.54362,0.34374c-0.28036,-0.00668 -0.55883,-0.05138 -0.8326,-0.1341l-0.01037,-0.00308c-0.4481,-0.12999 -0.89338,-0.36429 -1.31934,-0.72242c-0.17528,0.55081 -0.40287,1.00707 -0.66909,1.38369l1.59828,4.25641l0.93908,-2.36147l-0.45847,-0.54618c-0.34444,-0.54926 -0.14418,-1.1869 0.41229,-1.28504c0.24313,-0.04265 1.22698,-0.04881 1.45221,0.01696c0.50417,0.14695 0.65448,0.76917 0.35905,1.26808l-0.45847,0.54618l0.93107,2.36147l1.45928,-4.29803zm-5.53084,-2.16777l0.01885,0.01747c0.72328,0.75427 1.52478,1.0379 2.28575,1.00553c0.91788,-0.03956 1.78534,-0.53282 2.39601,-1.21516c0.01932,-0.02158 0.04146,-0.0411 0.06644,-0.05601c0.22617,-0.24714 0.44339,-0.52871 0.64836,-0.84316c0.15738,-0.242 0.31664,-0.50251 0.4236,-0.80206c0.10413,-0.29184 0.1635,-0.63353 0.13099,-1.05383c-0.00377,-0.06782 0.01084,-0.1377 0.04759,-0.19833a0.28799,0.31404 0 0 1 0.39863,-0.08992c0.05042,0.03597 0.10178,0.06577 0.15314,0.08632c0.04429,0.01747 0.08717,0.02826 0.12628,0.03031c0.08246,0.00462 0.11968,0.00462 0.12487,0c0.00895,-0.00719 0.02733,-0.06114 0.05466,-0.14592l0.36706,-1.13347c0.04665,-0.19114 0.04995,-0.32884 0.02309,-0.4203c-0.01366,-0.04624 -0.0377,-0.07759 -0.06691,-0.09454c-0.04335,-0.02518 -0.10696,-0.03391 -0.18094,-0.02775c-0.16115,0.01336 -0.34962,0.09865 -0.5169,0.23687c-0.06125,0.05035 -0.14089,0.0745 -0.2224,0.05909c-0.15691,-0.02929 -0.26292,-0.19217 -0.23607,-0.36326c0.27188,-1.73 0.14748,-2.8573 -0.19036,-3.62596c-0.29591,-0.67361 -0.76804,-1.08157 -1.28023,-1.38626c-1.13651,0.94901 -1.9366,1.05742 -2.73479,1.16481c-0.66014,0.08889 -1.31886,0.17778 -2.19151,0.83597c-0.41229,0.31086 -0.687,0.68696 -0.82883,1.1237c-0.1456,0.44856 -0.15691,0.97059 -0.03911,1.56198c0.01508,0.0596 0.01366,0.12486 -0.00754,0.18754c-0.05372,0.16288 -0.21958,0.24714 -0.36894,0.18857l-0.26434,-0.1043c-0.34114,-0.12999 -0.58286,-0.19062 -0.67616,0.04316c-0.00754,0.07553 -0.01272,0.19114 -0.01555,0.31034l0,0.00257c-0.00424,0.17213 -0.00424,0.35196 -0.00047,0.44239c0.0099,0.21323 0.05089,0.49069 0.13994,0.72601l0.01037,0.02312c0.05984,0.1526 0.13947,0.28208 0.23842,0.34323c0.04995,0.03083 0.10555,0.04522 0.16397,0.04573c0.07162,0.00103 0.15125,-0.01541 0.23607,-0.04265c0.02686,-0.01028 0.0556,-0.01593 0.08576,-0.01644a0.28795,0.31399 0 0 1 0.29497,0.30623c0.01555,0.72447 0.30062,1.24548 0.53009,1.66526l0.01602,0.02929c0.25633,0.46962 0.53904,0.86372 0.84013,1.18382z" fill-rule="nonzero"/>
 </g>
</svg>