<svg width="32" height="24" xmlns="http://www.w3.org/2000/svg" xml:space="preserve" version="1.1">

 <g>
  <title>Layer 1</title>
  <g stroke="null" id="svg_1">
   <path fill="#ffffff" stroke="null" id="svg_2" d="m27.08755,5.14095l0.06875,0c0.19861,0 0.37431,0.09135 0.49144,0.23092c2.90533,2.97908 4.43056,9.44729 4.0919,13.77635c-0.09421,1.20026 -0.33102,2.25588 -0.7206,3.05267c-0.44306,0.90844 -1.08218,1.50477 -1.93773,1.66209c-1.08982,0.20047 -2.45209,-0.37302 -4.08935,-2.03511c-0.21134,-0.21315 -0.43032,-0.42885 -0.6544,-0.64961c-0.76389,-0.74858 -1.56852,-1.53775 -2.24838,-2.48933l-11.89376,0c-0.68241,0.95919 -1.48704,1.74837 -2.25347,2.49695c-0.22153,0.21823 -0.44051,0.43138 -0.64931,0.642c-1.63727,1.66209 -2.99954,2.23558 -4.08935,2.03511c-0.85556,-0.15733 -1.49722,-0.75365 -1.93773,-1.66209c-0.38958,-0.79933 -0.62639,-1.85241 -0.7206,-3.05267c-0.33866,-4.34936 1.20185,-10.85563 4.1301,-13.81695c0.12477,-0.12688 0.28773,-0.19032 0.45324,-0.19032l0,-0.00254l0.0713,0c0.35903,-0.49228 0.80463,-0.88814 1.30625,-1.18757c0.76134,-0.45422 1.64745,-0.68006 2.52847,-0.68006c0.88357,0 1.76968,0.22584 2.52847,0.68006c0.49907,0.29689 0.94468,0.69275 1.29861,1.18503l2.01412,0c-0.15532,-3.78602 0.90139,-4.7376 2.46227,-4.84418c0.56528,-0.03806 1.16366,0.0609 1.79005,0.16494c1.18403,0.19539 2.49283,0.41108 3.42222,-0.51512c0.24954,-0.24868 0.65185,-0.24868 0.90139,0c0.24954,0.24868 0.24954,0.64961 0,0.89829c-1.39283,1.3855 -3.04028,1.11398 -4.52986,0.86784c-0.55,-0.09135 -1.07454,-0.17763 -1.49977,-0.14972c-0.84282,0.05583 -1.40301,0.75619 -1.2706,3.58302l3.27709,0c0.35648,-0.49228 0.80463,-0.89068 1.3037,-1.18757c0.76134,-0.45422 1.64745,-0.68006 2.52593,-0.68006s1.76458,0.22838 2.52593,0.68006c0.49907,0.29689 0.94722,0.69275 1.3037,1.18757l0,0zm-3.45023,7.79535c0.46852,0.46691 0.46852,1.22056 0,1.68747c-0.46852,0.46691 -1.22477,0.46691 -1.69329,0c-0.46852,-0.46691 -0.46852,-1.22056 0,-1.68747c0.46597,-0.46437 1.22477,-0.46437 1.69329,0l0,0zm2.66343,-2.38022c0.46852,0.46691 0.46852,1.22056 0,1.68747c-0.46852,0.46691 -1.22477,0.46691 -1.69329,0c-0.46852,-0.46691 -0.46852,-1.22056 0,-1.68747c0.46852,-0.46691 1.22477,-0.46691 1.69329,0l0,0zm-5.3294,0c0.46852,0.46691 0.46852,1.22056 0,1.68747c-0.46852,0.46691 -1.22477,0.46691 -1.69329,0c-0.46852,-0.46691 -0.46852,-1.22056 0,-1.68747c0.46852,-0.46691 1.22732,-0.46691 1.69329,0l0,0zm2.66597,-2.12647c0.46852,0.46691 0.46852,1.22056 0,1.68747c-0.46852,0.46691 -1.22477,0.46691 -1.69329,0c-0.46852,-0.46691 -0.46852,-1.22056 0,-1.68747c0.46597,-0.46437 1.22477,-0.46437 1.69329,0l0,0zm-16.3014,0.21315l2.08033,0l0,2.11378l2.12107,0l0,2.07318l-2.12107,0l0,2.11378l-2.08033,0l0,-2.11378l-2.12107,0l0,-2.07318l2.12107,0l0,-2.11378l0,0zm19.54793,-2.2305l-0.1375,0l0,-0.00254c-0.21644,0 -0.42778,-0.10911 -0.54491,-0.30958c-0.27245,-0.45168 -0.64421,-0.80694 -1.07199,-1.0607c-0.55764,-0.33242 -1.21204,-0.49736 -1.87408,-0.49736c-0.65949,0 -1.31644,0.16494 -1.87408,0.49736c-0.41505,0.24614 -0.77662,0.58871 -1.04653,1.02009c-0.1044,0.20808 -0.32083,0.35018 -0.57037,0.35018l-7.24167,0l0,-0.00254c-0.21644,0 -0.42778,-0.10911 -0.54491,-0.30958c-0.26991,-0.45168 -0.64167,-0.8044 -1.0669,-1.05816c-0.56019,-0.33496 -1.21713,-0.50243 -1.87662,-0.50243c-0.65949,0 -1.31644,0.16748 -1.87662,0.50243c-0.41505,0.24868 -0.77917,0.58871 -1.04907,1.02009c-0.1044,0.20808 -0.32083,0.35018 -0.57037,0.35018l-0.1375,0c-2.56158,2.79638 -3.89584,8.66573 -3.58519,12.6446c0.08148,1.04547 0.27755,1.9463 0.59583,2.59591c0.26482,0.5405 0.60347,0.89068 1.02107,0.96681c0.67986,0.12434 1.64745,-0.35272 2.95371,-1.67732c0.21644,-0.21823 0.43796,-0.43646 0.66458,-0.65722c0.78426,-0.76634 1.61181,-1.57835 2.24838,-2.5274c0.10694,-0.20047 0.31829,-0.33496 0.56273,-0.33496l12.56344,0l0,0.00254c0.20625,0 0.40741,0.09896 0.52963,0.28421c0.64676,0.97442 1.48449,1.79658 2.27639,2.57307c0.22917,0.2233 0.45324,0.44407 0.66968,0.66484c1.3037,1.3246 2.27384,1.80166 2.95371,1.67732c0.41759,-0.07613 0.7588,-0.42631 1.02107,-0.96681c0.31829,-0.65215 0.51435,-1.55044 0.59583,-2.59591c0.31065,-3.98395 -1.02361,-9.8533 -3.58773,-12.64714l0,0z"/>
  </g>
 </g>
</svg>