<svg width="338" height="208" xmlns="http://www.w3.org/2000/svg" clip-rule="evenodd" fill-rule="evenodd" image-rendering="optimizeQuality" text-rendering="geometricPrecision" shape-rendering="geometricPrecision">

 <g>
  <title>Layer 1</title>
  <path stroke="null" fill="#ffffff" id="svg_1" d="m23.02625,0l291.9475,0c6.31109,0 12.06766,2.47036 16.23324,6.43676c4.19859,3.9664 6.79301,9.46027 6.79301,15.48845l0,164.32588c0,6.0156 -2.60102,11.50947 -6.7666,15.47587l-0.44891,0.38973c-4.13258,3.74011 -9.7109,6.05332 -15.81074,6.05332l-291.9475,0c-6.30449,0 -12.06766,-2.47036 -16.24645,-6.44933c-4.18539,-3.95383 -6.7798,-9.43513 -6.7798,-15.46959l0,-164.32588c0,-6.00932 2.59441,-11.48433 6.76,-15.4633l0.02641,-0.02514c4.19199,-3.97269 9.93535,-6.43676 16.23984,-6.43676zm153.74379,71.4392c-3.08953,0 -5.59813,-3.18066 -5.59813,-7.10306c0,-3.92868 2.50859,-7.10935 5.59813,-7.10935l79.48941,0c3.08953,0 5.59813,3.18066 5.59813,7.10935c0,3.9224 -2.50859,7.10306 -5.59813,7.10306l-79.48941,0zm0,76.66278c-3.08953,0 -5.59813,-3.18066 -5.59813,-7.10306c0,-3.9224 2.50859,-7.10935 5.59813,-7.10935l118.49805,0c3.08953,0 5.59813,3.18695 5.59813,7.10935s-2.50859,7.10306 -5.59813,7.10306l-118.49805,0zm0,-38.33139c-3.08953,0 -5.59813,-3.18066 -5.59813,-7.10306c0,-3.9224 2.50859,-7.10306 5.59813,-7.10306l110.82703,0c3.08953,0 5.59813,3.18066 5.59813,7.10306c0,3.9224 -2.50859,7.10306 -5.59813,7.10306l-110.82703,0zm-61.53316,12.50893c6.25168,5.12929 18.14109,3.58925 24.82188,7.14078c2.1257,1.13146 4.05336,2.57093 5.59813,4.51327c3.82891,4.815 4.12598,6.57505 5.58492,12.45236c-0.34328,3.46353 -2.40957,5.46244 -6.46953,5.75788l-93.19426,0c-4.05996,-0.29544 -6.12625,-2.29435 -6.46953,-5.75788c1.45895,-5.87731 1.75602,-7.63736 5.59152,-12.45236c1.54477,-1.94863 3.46582,-3.38181 5.59152,-4.51327c6.57516,-3.48867 17.99586,-1.97377 24.5116,-6.89563c0.98363,-2.03034 1.98047,-4.90928 2.60762,-6.72591l0.26406,-0.74802c0.72617,-2.06806 -3.56484,-6.10989 -5.00398,-8.28481l-5.33406,-8.07109c-1.94746,-2.77208 -2.9641,-5.3053 -3.02352,-7.37964c-0.03301,-0.9806 0.14523,-1.86691 0.52152,-2.64008c0.39609,-0.81717 1.01004,-1.50233 1.83523,-2.03034c0.38289,-0.24515 0.81859,-0.45258 1.29391,-0.62859c-0.34988,-4.37498 -0.47531,-7.70651 -0.25086,-12.32664c0.11223,-1.09375 0.33008,-2.19378 0.65355,-3.28752c1.95406,-6.64419 7.94828,-11.42776 14.8007,-13.67811c3.32059,-1.09375 2.03988,-3.70239 5.39348,-3.52639c7.96148,0.41487 20.24699,5.29901 24.96051,10.47859c6.61477,7.26021 4.90496,14.00497 4.68711,22.86809l0,-0.00629c1.47875,0.42744 2.42277,1.32004 2.81227,2.77208c0.4291,1.59662 -0.03301,3.85954 -1.45895,6.93334l-0.0066,0c-0.02641,0.05657 -0.05281,0.11315 -0.09242,0.16343l-6.07344,9.52942c-2.34355,3.67725 -4.72012,7.36078 -7.89547,10.18944c-0.15184,0.13829 -0.31027,0.27029 -0.46871,0.4023c0.46211,0.60973 0.99684,1.35775 1.57117,2.16235c0.8252,1.1566 1.73621,2.42636 2.64063,3.58925zm199.73688,-109.49401l-291.9475,0c-2.64723,0 -5.0502,1.0246 -6.7732,2.66522l-0.02641,0.02514a9.56434,9.10701 0 0 0 -2.79906,6.44933l0,164.32588c0,2.4955 1.08926,4.78357 2.83207,6.44304a9.44684,8.99512 0 0 0 6.7666,2.69036l291.9475,0c2.49539,0 4.78613,-0.92403 6.50254,-2.43264l0.26406,-0.26401c1.74281,-1.65948 2.83207,-3.94754 2.83207,-6.43676l0,-164.32588c0,-2.50179 -1.08926,-4.78985 -2.83207,-6.44933a9.50097,9.04666 0 0 0 -6.7666,-2.69036z" fill-rule="nonzero"/>
 </g>
</svg>