<svg width="28" height="25" xmlns="http://www.w3.org/2000/svg" xml:space="preserve" version="1.1">
 <title>Grad-cap</title>

 <g>
  <title>Layer 1</title>
  <g stroke="null" id="svg_1">
   <path fill="#ffffff" stroke="null" id="svg_2" clip-rule="evenodd" fill-rule="evenodd" d="m23.71862,20.20851l-0.12252,-6.86084l-7.45333,3.25709c-0.67159,0.22309 -1.33411,0.32948 -1.98302,0.33292c-0.69655,0.00343 -1.38176,-0.10983 -2.05562,-0.33292l-7.1198,-3.29142l0,6.95694c0.2042,3.61404 7.05854,4.71918 9.16181,4.8702c1.68579,0.12356 8.345,-1.20811 9.2208,-3.28455c0.18832,-0.45304 0.3063,-1.00218 0.35168,-1.64742l0,0zm3.0199,-11.79968l0,8.3847l0.17471,0c0.12025,0 0.21781,0.14758 0.21781,0.32948l0,2.25491c0,0.17847 -0.09756,0.32948 -0.21781,0.32948l-0.17471,0l0,0.78939c0.22235,0.06178 0.39252,0.36037 0.39252,0.71388l0,0c0,0.39813 -0.21781,0.72761 -0.48101,0.72761l-0.85991,0c-0.26319,0 -0.48101,-0.32605 -0.48101,-0.72761l0,0c0,-0.35351 0.17017,-0.65211 0.39252,-0.71388l0,-0.78939l-0.17471,0c-0.11798,0 -0.21781,-0.14758 -0.21781,-0.32948l0,-2.25491c0,-0.1819 0.09756,-0.32948 0.21781,-0.32948l0.17471,0l0,-7.89391l-9.07105,4.26271c-1.64268,0.59033 -3.28536,0.63151 -4.92804,0l-10.01264,-4.52012l-0.90529,-0.40842c-1.12764,-0.69672 -0.8463,-2.33385 0.2042,-2.71139l11.32407,-5.11388c1.16848,-0.50452 2.3347,-0.58346 3.50318,0l11.11987,5.0521c1.20932,0.44618 1.44756,2.13822 0.04084,2.83494l-0.23823,0.11326l0,0z" class="st0"/>
  </g>
 </g>
</svg>