<svg width="32" height="24" xmlns="http://www.w3.org/2000/svg" xml:space="preserve" version="1.1">

 <g>
  <title>Layer 1</title>
  <g stroke="null" id="svg_1">
   <path fill="#ffffff" stroke="null" id="svg_2" d="m29.9881,21.01548c-0.91939,0.91824 -2.22297,1.62311 -3.74381,1.99651c-0.06889,0.02286 -0.14572,0.03429 -0.22256,0.03429c-0.07419,0 -0.14837,-0.01143 -0.21726,-0.03239l0,0.01143c0,0.37339 -0.42393,0.6782 -0.94589,0.6782l-2.03485,0c-0.51931,0 -0.94589,-0.30481 -0.94589,-0.6782l0,-10.50261c0,-0.37339 0.42393,-0.68011 0.94589,-0.68011l2.03485,0c0.51931,0 0.94589,0.30481 0.94589,0.68011l0,0.06477c0.06889,-0.02286 0.14308,-0.03429 0.21726,-0.03429c0.05829,0 0.11658,0.00762 0.16957,0.01905l0,0.00191c1.1552,0.27623 2.18852,0.74678 3.02578,1.3545l0,-2.36609c0,-2.83664 -1.32212,-5.26369 -3.65902,-6.97253l-1.03597,1.11065c-2.10639,-1.66693 -5.14012,-2.71852 -8.49974,-2.71852c-3.38082,0 -6.43575,1.06493 -8.54213,2.75282l-1.25323,-1.10113c-2.3051,1.68979 -3.61133,4.08255 -3.61133,6.92871l0,2.71471c0.90085,-0.77727 2.09844,-1.37546 3.46296,-1.70122l0,-0.00191c0.05564,-0.01334 0.11393,-0.02096 0.16957,-0.02096c0.07419,0 0.15102,0.01143 0.21726,0.03239l0,-0.06477c0,-0.37339 0.42658,-0.68011 0.94589,-0.68011l2.03485,0c0.51931,0 0.94589,0.30481 0.94589,0.68011l0,10.50261c0,0.37339 -0.42658,0.6782 -0.94589,0.6782l-2.03485,0c-0.51931,0 -0.94589,-0.30481 -0.94589,-0.6782l0,-0.01143c-0.06624,0.02096 -0.14043,0.03239 -0.21726,0.03239c-0.07949,0 -0.15367,-0.01334 -0.21991,-0.03429c-1.52084,-0.37339 -2.82442,-1.07827 -3.74381,-1.99651c-0.48222,-0.48008 -0.85845,-1.0173 -1.10486,-1.59454l-0.82666,0l0,-7.85648c0,-3.09954 1.76195,-5.91522 4.60226,-7.95745c2.84031,-2.04223 6.75899,-3.311 11.06715,-3.311c4.31081,0 8.22949,1.26877 11.06715,3.30909c2.84031,2.04223 4.60226,4.85791 4.60226,7.95745l0,7.85838l-0.60145,0c-0.24111,0.57152 -0.61734,1.11256 -1.10221,1.59644l0,0l0,0z"/>
  </g>
 </g>
</svg>