<svg width="24" height="25" xmlns="http://www.w3.org/2000/svg" xml:space="preserve" version="1.1">

 <g>
  <title>Layer 1</title>
  <g stroke="null" id="svg_1">
   <path fill="#ffffff" stroke="null" id="svg_2" clip-rule="evenodd" fill-rule="evenodd" d="m8.91103,11.25713l-0.05881,3.40237l3.81415,0c0.80814,0 1.46816,0.61658 1.46816,1.37153l0,1.37153l-0.01525,0l0,5.36403c0,0.75495 -0.66002,1.37153 -1.46816,1.37153l-1.46816,0l0,-6.34079c0,-0.6003 -0.24179,-0.39274 -0.96933,-0.39274l-3.28048,0l0,-0.00814l-1.88203,0c-1.21548,0 -2.20877,-0.92792 -2.20877,-2.0634l0,-7.15678c0,-1.15379 1.01072,-2.09799 2.2458,-2.09799l1.11092,0c2.31332,0 1.9452,1.48752 2.96898,2.42358c1.01072,0.92385 0.75586,1.02967 2.13688,1.02967l2.97552,0c2.46363,0 1.13924,2.23637 -0.32021,2.16718l-2.7272,0c-1.21548,0 -1.31785,0.18111 -2.32204,-0.44158l0,0zm7.74811,0.45379c-0.35506,0 -0.64259,-0.26861 -0.64259,-0.6003c0,-0.33169 0.28753,-0.6003 0.64259,-0.6003l4.13654,0l2.2153,-4.21227c0.15466,-0.2971 0.54021,-0.41919 0.85824,-0.27471c0.31803,0.14448 0.44872,0.50466 0.29407,0.79972l-2.36778,4.50122c-0.09149,0.22588 -0.32674,0.38663 -0.6012,0.38663l-4.53516,0l0,0zm-5.74846,0.42937l12.46189,0c0.07188,0 0.1307,0.05698 0.1307,0.12209l0,1.74799c0,0.06512 -0.06099,0.12209 -0.1307,0.12209l-0.58813,0l0,10.71178c0,0.08954 -0.07842,0.16076 -0.17208,0.16076l-1.47905,0c-0.09584,0 -0.17208,-0.07326 -0.17208,-0.16076l0,-10.71178l-10.05055,0c-0.0697,0 -0.1307,-0.05494 -0.1307,-0.12209l0,-1.74799c0,-0.06715 0.05881,-0.12209 0.1307,-0.12209l0,0zm-9.7042,10.71585c0.01089,-0.08343 0.05228,-0.16483 0.1198,-0.22995c0.50754,-0.4782 1.15013,-0.86891 1.8842,-1.13548c0.51407,-0.18721 1.06953,-0.31338 1.65331,-0.36832l-0.11109,-1.63403l-3.98188,0c-0.41387,0 -0.75586,-0.31745 -0.75586,-0.70611c0,-2.9201 0.73626,-5.11577 0,-8.44081c-0.21783,-0.9849 1.95827,-1.12734 1.95827,0.05291l0,7.48237l7.53246,0c0.41605,0 0.75368,0.51687 0.75368,0.90554l0,0.54943c0,0.08547 -0.07624,0.15465 -0.16555,0.15465l-3.99713,0l-0.15466,1.61775c0.61863,0.03866 1.21112,0.15669 1.75569,0.34187c0.7014,0.23808 1.32221,0.59012 1.82975,1.02153c0.12198,0.10378 0.16555,0.2564 0.12634,0.39681c0.19604,0.13634 0.32238,0.35407 0.32238,0.6003c0,0.41512 -0.35941,0.75088 -0.80378,0.75088c-0.44437,0 -0.8016,-0.33576 -0.8016,-0.75088c0,-0.24826 0.12852,-0.46803 0.32674,-0.60437c-0.37466,-0.27268 -0.8125,-0.49855 -1.29172,-0.66135c-0.51625,-0.17704 -1.08478,-0.28285 -1.6838,-0.30117l-0.08713,0.80989l-0.00436,0.03459c0.33981,0.0875 0.58813,0.37849 0.58813,0.72239c0,0.41512 -0.35941,0.75088 -0.8016,0.75088c-0.44437,0 -0.80378,-0.33576 -0.80378,-0.75088c0,-0.34187 0.24614,-0.63082 0.5816,-0.72036l-0.00218,-0.03866l-0.06099,-0.80176c-0.57289,0.03663 -1.11528,0.15058 -1.60756,0.32966l-0.00218,0c-0.47922,0.175 -0.9127,0.41105 -1.283,0.69594c0.14812,0.13634 0.23961,0.32559 0.23961,0.53518c0,0.41512 -0.35941,0.75088 -0.8016,0.75088c-0.44437,0 -0.80378,-0.33576 -0.80378,-0.75088c-0.00218,-0.25029 0.1307,-0.4721 0.33328,-0.60844l0,0zm6.4259,-22.85613c1.69687,0 3.07136,1.28403 3.07136,2.86923c0,1.5852 -1.37449,2.86923 -3.07136,2.86923c-1.69687,0 -3.07136,-1.28403 -3.07136,-2.86923c0,-1.5852 1.37449,-2.86923 3.07136,-2.86923l0,0z" class="st0"/>
  </g>
 </g>
</svg>