<svg width="28" height="26" xmlns="http://www.w3.org/2000/svg" xml:space="preserve" version="1.1">

 <g>
  <title>Layer 1</title>
  <g stroke="null">

   <title fill="#ffffff" stroke="null">watering-can</title>
   <path fill="#ffffff" stroke="null" fill-rule="evenodd" d="m17.79683,25.43855l7.28921,-5.67533a1.29922,2.12871 0 0 0 0.62589,-2.89505l-0.12201,-0.37021l0.63718,-0.49978a2.8357,4.64614 0 0 0 1.35571,-6.17881l-1.72175,-5.88265a0.90381,1.48084 0 0 0 -0.04971,-0.174a2.84248,4.65725 0 0 0 -3.68754,-2.14722a0.90381,1.48084 0 0 0 -0.1062,0.08145l-1.1501,0.91072l-0.0226,0a1.35571,2.22126 0 0 0 -1.73305,-0.93663l-6.1007,4.7535a1.35571,2.22126 0 0 0 -0.62815,2.89505l1.63815,6.77115l-3.3825,-2.00654c-0.22595,-0.14068 -0.18528,-0.08885 -0.28922,-0.47017l-0.8428,-3.05054c-0.20562,-0.74042 -0.22595,-1.11063 -0.64622,-1.57339a1.49806,2.4545 0 0 0 -0.80891,-0.41834l-2.09683,10.10305a1.602,2.62479 0 0 0 0.66204,0.39613c0.42479,0.07404 0.66204,-0.22953 1.0326,-0.5257l2.12847,-1.69556c0.09942,-0.08145 0.0723,-0.09255 0.1672,0l5.42285,4.81274l0.66204,2.73956a1.30148,2.13241 0 0 0 1.76694,1.02919l0,0.0074zm-12.65331,-9.10348a0.32763,0.53681 0 0 0 0.15139,-1.0477a4.13266,6.77115 0 0 0 -0.70045,-0.174a0.32989,0.54051 0 0 0 -0.14235,1.04029a0.35474,0.58123 0 0 0 0.09716,0.03332a3.34409,5.47912 0 0 1 0.59425,0.14808zm-4.40606,1.00697a0.32989,0.54051 0 0 0 0.32989,0.91812a0.28922,0.47387 0 0 0 0.0836,-0.08515a6.07585,9.95496 0 0 1 0.51065,-0.60344a0.32763,0.53681 0 0 0 -0.27114,-0.96995a0.31633,0.51829 0 0 0 -0.09716,0.07404c-0.19432,0.21842 -0.37282,0.42204 -0.55584,0.66638zm1.78502,-1.69927a0.32763,0.53681 0 0 0 0.13105,1.03289a0.4858,0.79595 0 0 0 0.09942,-0.03332a4.47611,7.33387 0 0 1 0.58522,-0.29247a0.32989,0.54051 0 0 0 -0.02937,-1.0588a0.34119,0.55902 0 0 0 -0.1175,0a5.30535,8.69254 0 0 0 -0.67786,0.33319l0.00904,0.01851zm3.2876,-2.51743a0.33215,0.54421 0 0 0 0.39316,-0.15179a0.32763,0.53681 0 0 0 -0.12879,-0.81817a3.76888,6.17511 0 0 0 -0.67786,-0.37021a0.32763,0.53681 0 0 0 -0.14687,1.0477a3.11814,5.10891 0 0 1 0.56488,0.30357l-0.00452,-0.01111zm-5.6488,1.52527a0.32311,0.5294 0 0 0 -0.01808,0.66638a0.32763,0.53681 0 0 0 0.51291,0.03702l0.10168,-0.15919a0.32763,0.53681 0 0 0 -0.39316,-0.84408a0.43609,0.71451 0 0 0 -0.08586,0.10366c-0.04067,0.07034 -0.07908,0.14068 -0.1175,0.21472l0,-0.01851zm1.21336,-1.63633a0.33215,0.54421 0 0 0 -0.16494,0.47757a0.32763,0.53681 0 0 0 0.49483,0.44795a5.07036,8.30753 0 0 1 0.54906,-0.47017a0.32763,0.53681 0 0 0 -0.27114,-0.98106a6.85312,11.22849 0 0 0 -0.61233,0.5257l0.00452,0zm1.92737,-1.2291a0.32763,0.53681 0 0 0 0.04293,1.0625a0.38412,0.62936 0 0 0 0.08812,0a5.54712,9.08867 0 0 1 0.60781,-0.14438a0.32763,0.53681 0 0 0 -0.05197,-1.06991a5.84312,9.57365 0 0 0 -0.67786,0.15919l-0.00904,-0.0074zm3.16333,-1.41791a0.32763,0.53681 0 0 0 0.4519,-0.74042a0.33215,0.54421 0 0 0 -0.10394,-0.174a4.48515,7.34868 0 0 0 -0.62815,-0.53681a0.32763,0.53681 0 0 0 -0.34797,0.89221a0.34571,0.56642 0 0 0 0.09038,0.09625a3.50903,5.74937 0 0 1 0.54228,0.47757l-0.00452,-0.01481zm-6.14815,0.21472a0.32763,0.53681 0 0 0 0.39542,0.84778a0.30955,0.50719 0 0 0 0.05423,-0.06664a4.00839,6.56754 0 0 1 0.47224,-0.61085a0.32763,0.53681 0 0 0 -0.25533,-0.98476a0.3909,0.64046 0 0 0 -0.12201,0.08515a5.16526,8.46301 0 0 0 -0.5468,0.74042l0.00226,-0.01111zm0.5468,-0.74042l0.37508,0.91072l-0.37056,-0.89961l-0.00452,-0.01111zm1.24951,-1.02548a0.32763,0.53681 0 1 0 0.22595,1.01067c0.19884,-0.10736 0.38186,-0.20362 0.58748,-0.28136a0.32763,0.53681 0 0 0 -0.02485,-1.0551a0.28244,0.46276 0 0 0 -0.11524,0a6.6814,10.94713 0 0 0 -0.67786,0.31838l0.00452,0.0074zm2.03357,-0.56272a0.32763,0.53681 0 0 0 -0.14461,1.01808a0.31633,0.51829 0 0 0 0.14235,0.05923a4.65461,7.62634 0 0 1 0.61459,0.06664a0.32763,0.53681 0 0 0 0.22595,-0.98106a0.34119,0.55902 0 0 0 -0.13783,-0.08515a5.43866,8.91097 0 0 0 -0.69141,-0.07404l-0.00904,-0.0037zm14.96028,-7.49676c-0.42027,-0.65527 -0.97611,-0.96995 -1.51614,-0.54791l-4.43092,3.45036a1.32182,2.16573 0 0 0 -0.70723,2.2805l6.65429,-5.18295zm5.71659,13.50158l-3.21078,-9.39594l1.12976,-0.8774a1.26533,2.07318 0 0 1 1.67882,0.97365l1.73305,5.9715a1.27211,2.08429 0 0 1 -0.59425,2.75437l-0.65074,0.50719c-0.02937,0.02221 -0.05649,0.04813 -0.0836,0.07404l-0.00226,-0.0074z" class="cls-1"/>
  </g>
 </g>
</svg>