<svg width="34" height="34" xmlns="http://www.w3.org/2000/svg" clip-rule="evenodd" fill-rule="evenodd" image-rendering="optimizeQuality" text-rendering="geometricPrecision" shape-rendering="geometricPrecision">

 <g>
  <title>Layer 1</title>
  <path stroke="null" style="vector-effect: non-scaling-stroke;" id="svg_1" d="m16.87998,0.12079c-9.25197,0 -16.75497,7.71939 -16.75497,17.24102c0,7.61825 4.80037,14.07884 11.458,16.3597c0.83799,0.1597 1.14598,-0.37485 1.14598,-0.83051c0,-0.41111 -0.0167,-1.76916 -0.02351,-3.20868c-4.66183,1.04307 -5.64454,-2.03517 -5.64454,-2.03517c-0.76196,-1.9932 -1.86034,-2.52327 -1.86034,-2.52327c-1.52015,-1.07109 0.11567,-1.04754 0.11567,-1.04754c1.68216,0.12096 2.5678,1.77557 2.5678,1.77557c1.49544,2.63594 3.92097,1.87288 4.87646,1.43311c0.15091,-1.1143 0.58383,-1.87541 1.06372,-2.30624c-3.72184,-0.43465 -7.63411,-1.91362 -7.63411,-8.52064c0,-1.88183 0.65556,-3.4206 1.72609,-4.62725c-0.17436,-0.43525 -0.74829,-2.18787 0.16143,-4.56227c0,0 1.40695,-0.46391 4.60931,1.76728c1.33584,-0.3812 2.76876,-0.57339 4.19183,-0.57975c1.42423,0.00636 2.85966,0.1979 4.19738,0.57975c3.19802,-2.22989 4.60371,-1.76728 4.60371,-1.76728c0.91098,2.37505 0.33956,4.12891 0.16515,4.56232c1.07424,1.2066 1.72426,2.74537 1.72426,4.62719c0,6.62228 -3.92097,8.07829 -7.65087,8.50534c0.60116,0.53455 1.13797,1.58398 1.13797,3.1915c0,2.30565 -0.01916,4.16388 -0.01916,4.73091c0,0.45885 0.30181,0.99533 1.15153,0.82728c6.65386,-2.28205 11.44811,-8.74338 11.44811,-16.35711c0,-9.52039 -7.50174,-17.24107 -16.7556,-17.24107l-0.0012,0.00577l-0.00005,0.00005z"/>
 </g>
</svg>